<?xml version="1.0" encoding="UTF-8"?>
<svg width="337px" height="192px" version="1.1" viewBox="-.5 -.5 337 192" xmlns="http://www.w3.org/2000/svg" xmlns:xlink="http://www.w3.org/1999/xlink">
  <defs>
    <linearGradient id="linearGradient122" x1="28.5" x2="310.5" y1="190.5" y2="-.5" gradientUnits="userSpaceOnUse">
      <stop stop-color="#ee5396" offset="0"/>
      <stop stop-color="#4589ff" offset="1"/>
    </linearGradient>
    <linearGradient id="linearGradient71" x1="270" x2="336.5" y1="110" y2="79.5" gradientUnits="userSpaceOnUse" xlink:href="#linearGradient123"/>
    <linearGradient id="linearGradient123">
      <stop stop-color="#007d79" offset="0"/>
      <stop stop-color="#42be65" offset="1"/>
    </linearGradient>
    <linearGradient id="linearGradient31" x2="60.5" y1="110" y2="79.5" gradientUnits="userSpaceOnUse" xlink:href="#linearGradient123"/>
    <linearGradient id="linearGradient32" x1="110" x2="220" y1="110" y2="80" gradientUnits="userSpaceOnUse" xlink:href="#linearGradient123"/>
  </defs>
  <g data-cell-id="CBYwyvXs6BY74LJFTlxl-0">
    <g data-cell-id="CBYwyvXs6BY74LJFTlxl-1">
      <g data-cell-id="CBYwyvXs6BY74LJFTlxl-2">
        <path d="m29 80v-70c0-5.54 4.46-10 10-10h261c5.54 0 10 4.46 10 10v70m0 30v70c0 5.54-4.46 10-10 10h-261c-5.54 0-10-4.46-10-10v-70" fill="none" stop-color="#000000" stroke="url(#linearGradient122)"/>
        <g fill="#f4f4f4" font-family='"IBM Plex Sans"' font-size="13px">
          <text x="41.5" y="22.5" font-family="'IBM Plex Sans'" font-size="13px" font-weight="600">Accept access token</text>
        </g>
      </g>
      <g data-cell-id="CBYwyvXs6BY74LJFTlxl-3">
        <g fill="none" stroke="#f4f4f4" stroke-miterlimit="10">
          <path d="m165 50v20-10 17.76" pointer-events="stroke"/>
          <path d="m159.5 67.88 5.5 11 5.5-11" pointer-events="all"/>
        </g>
      </g>
      <g data-cell-id="CBYwyvXs6BY74LJFTlxl-4">
        <ellipse cx="165" cy="40" rx="10" ry="10" fill="#f4f4f4" pointer-events="all" stroke="#f4f4f4"/>
      </g>
      <g data-cell-id="CBYwyvXs6BY74LJFTlxl-5">
        <rect y="80" width="60" height="30" fill="none" pointer-events="all" stop-color="#000000" stroke="url(#linearGradient31)" />
        <g fill="#f4f4f4" font-family='"IBM Plex Sans"' font-size="12px" text-anchor="middle">
          <text x="29.5" y="99.5" font-size="13px">token</text>
        </g>
      </g>
      <g data-cell-id="CBYwyvXs6BY74LJFTlxl-6">
        <g fill="none" stroke="#f4f4f4" stroke-miterlimit="10">
          <path d="m60 95h47.76" pointer-events="stroke"/>
          <path d="m97.88 100.5 11-5.5-11-5.5" pointer-events="all"/>
        </g>
      </g>
      <g data-cell-id="CBYwyvXs6BY74LJFTlxl-10">
        <g fill="none" stroke="#f4f4f4" stroke-miterlimit="10">
          <path d="m165 110v37.76" pointer-events="stroke"/>
          <path d="m159.5 137.88 5.5 11 5.5-11" pointer-events="all"/>
        </g>
      </g>
      <g data-cell-id="CBYwyvXs6BY74LJFTlxl-14">
        <rect x="270" y="80" width="66" height="30" fill="none" pointer-events="all" stop-color="#000000" stroke="url(#linearGradient71)" />
        <g fill="#f4f4f4" font-family='"IBM Plex Sans"' font-size="12px" text-anchor="middle">
          <text x="302.5" y="99.5" font-size="13px">true</text>
        </g>
      </g>
      <g data-cell-id="CBYwyvXs6BY74LJFTlxl-15">
        <g fill="none" stroke="#f4f4f4" stroke-miterlimit="10">
          <path d="m220 95h47.76" pointer-events="stroke"/>
          <path d="m257.88 100.5 11-5.5-11-5.5" pointer-events="all"/>
        </g>
      </g>
      <g data-cell-id="CBYwyvXs6BY74LJFTlxl-16">
        <g pointer-events="all" stroke="#f4f4f4">
          <ellipse cx="165" cy="160" rx="6" ry="6" fill="#f4f4f4"/>
          <ellipse cx="165" cy="160" rx="10" ry="10" fill="none"/>
        </g>
      </g>
      <g data-cell-id="4crN2v_Zk3aAjJnq-VBU-0">
        <rect x="110" y="80" width="110" height="30" rx="5" ry="5" fill="none" pointer-events="all" stop-color="#000000" stroke="url(#linearGradient32)" />
        <g fill="#f4f4f4" font-family='"IBM Plex Sans"' font-size="12px" text-anchor="middle">
          <text x="164.5" y="99.5" font-size="13px">Accept token</text>
        </g>
      </g>
    </g>
  </g>
</svg>
